:SAMPLES-PER-SECOND 30
:FULLY-SPECIFIED
:DEGREES
16
root  2.04036 40.9197 -3.9198 -95.4872 -88.7739 97.5725
RightUpLeg  -2.04514 -9.79782 -9.15287
RightLeg  4.33622 -4.92343 2.87143
RightFoot  -1.29653 -0.205245 2.24428
RightToes  0.000482159 0.542163 -0.142577
Spine  4.72751 0.0241113 -4.13372
Spine1  -2.20088 -0.748178 4.34863
HEad  -8.15505 -7.10456 -0.739563
LeftShoulder1  0.698254 -1.0852 -7.56031
LeftArm  -19.6252 15.2574 -9.19733
LeftForeArm  19.0079 -2.67341 -0.117704
LeftHand  -0.25398 0.0180481 5.50724
RightShoulder  0.22529 -1.74203 4.94675
RightArm  -22.1074 -9.20234 5.0913
RightForeArm  5.76312 3.22095 1.7145
RightHand  -0.650092 1.04691 -11.8446
LeftUpLeg  -0.818911 5.49183 3.70387
LeftLeg  2.09832 15.5751 -3.63986
LeftFoot  -1.68284 0.177445 -2.00863
LeftToes  1.06246e-005 4.65855e-005 -8.18502e-006
17
root  2.06418 40.9205 -3.92869 -87.3583 -88.7823 89.5039
RightUpLeg  -2.06888 -9.7961 -9.13981
RightLeg  4.25375 -5.12586 2.89394
RightFoot  -1.28934 -0.204612 2.246
RightToes  0.000482159 0.542163 -0.142577
Spine  4.73726 -0.0361303 -4.16175
Spine1  -2.20104 -0.808198 4.33032
HEad  -8.24653 -7.15899 -0.588309
LeftShoulder1  0.688989 -1.03615 -7.51494
LeftArm  -19.5848 15.2856 -9.13752
LeftForeArm  19.013 -2.72615 -0.135962
LeftHand  -0.25398 0.0180481 5.50724
RightShoulder  0.220556 -1.78034 4.95686
RightArm  -21.9634 -9.23485 4.96176
RightForeArm  5.4607 3.20028 1.76624
RightHand  -0.636482 0.900902 -11.8513
LeftUpLeg  -0.909808 5.45914 3.69633
LeftLeg  2.02338 15.4649 -3.63783
LeftFoot  -1.61934 0.181273 -2.06815
LeftToes  1.06246e-005 4.65855e-005 -8.18502e-006
18
root  2.09341 40.9212 -3.94099 -80.5339 -88.7689 82.6967
RightUpLeg  -2.09595 -9.78989 -9.12355
RightLeg  4.25027 -5.27645 2.90328
RightFoot  -1.29292 -0.203483 2.23906
RightToes  0.000482159 0.542163 -0.142577
Spine  4.80237 -0.0612668 -4.22424
Spine1  -2.15769 -0.848359 4.39022
HEad  -8.42766 -7.25105 -0.503629
LeftShoulder1  0.67459 -0.920589 -7.58578
LeftArm  -19.6353 15.1523 -9.07158
LeftForeArm  19.2088 -2.75237 -0.12405
LeftHand  -0.25398 0.0180481 5.50724
RightShoulder  0.207317 -1.8764 4.88999
RightArm  -21.9765 -9.28212 4.96427
RightForeArm  5.58777 3.24282 1.75736
RightHand  -0.607129 0.712499 -11.6403
LeftUpLeg  -1.0035 5.45383 3.70982
LeftLeg  2.03639 15.3402 -3.63694
LeftFoot  -1.56751 0.184002 -2.11059
LeftToes  1.06246e-005 4.65855e-005 -8.18502e-006
19
root  2.12186 40.9219 -3.9542 -76.0913 -88.7553 78.2529
RightUpLeg  -2.12258 -9.77174 -9.09382
RightLeg  4.25672 -5.38971 2.89247
RightFoot  -1.27692 -0.204102 2.25802
RightToes  0.000482159 0.542163 -0.142577
Spine  4.82595 -0.0589604 -4.33053
Spine1  -2.08982 -0.874128 4.53146
HEad  -8.57602 -7.24344 -0.577077
LeftShoulder1  0.670102 -0.875854 -7.68459
LeftArm  -19.6769 15.0315 -9.01404
LeftForeArm  19.3395 -2.61977 -0.0888023
LeftHand  -0.25398 0.0180481 5.50724
RightShoulder  0.197038 -1.94548 4.78351
RightArm  -22.0985 -9.29062 5.02914
RightForeArm  5.83263 3.23062 1.69963
RightHand  -0.59531 0.617289 -11.5862
LeftUpLeg  -1.07786 5.46085 3.73326
LeftLeg  2.06284 15.2409 -3.63703
LeftFoot  -1.52169 0.18463 -2.12036
LeftToes  1.06246e-005 4.65855e-005 -8.18502e-006
20
root  2.14365 40.9233 -3.96307 -75.0772 -88.7471 77.2477
RightUpLeg  -2.1531 -9.74687 -9.0692
RightLeg  4.22802 -5.44428 2.87742
RightFoot  -1.23048 -0.204032 2.26482
RightToes  0.000482159 0.542163 -0.142577
Spine  4.73409 -0.0569108 -4.42465
Spine1  -1.98275 -0.892054 4.64126
HEad  -8.61592 -7.14742 -0.747695
LeftShoulder1  0.668019 -0.89296 -7.74509
LeftArm  -19.6984 15.0734 -8.97219
LeftForeArm  19.3742 -2.51828 -0.0515042
LeftHand  -0.25398 0.0180481 5.50724
RightShoulder  0.196665 -1.94797 4.78293
RightArm  -22.1699 -9.15924 5.0532
RightForeArm  5.69664 3.09835 1.67291
RightHand  -0.612188 0.664632 -11.8222
LeftUpLeg  -1.12796 5.45629 3.73772
LeftLeg  2.06168 15.2288 -3.63526
LeftFoot  -1.47847 0.184014 -2.11079
LeftToes  1.06246e-005 4.65855e-005 -8.18502e-006
21
root  2.15804 40.9248 -3.96644 -77.4894 -88.7452 79.6565
RightUpLeg  -2.17005 -9.74134 -9.06404
RightLeg  4.19349 -5.41197 2.87356
RightFoot  -1.18088 -0.199583 2.20192
RightToes  0.000482159 0.542163 -0.142577
Spine  4.58705 -0.0461434 -4.46301
Spine1  -1.82114 -0.888903 4.68441
HEad  -8.59995 -7.13889 -0.870264
LeftShoulder1  0.667334 -0.850851 -7.83534
LeftArm  -19.6982 15.208 -8.93647
LeftForeArm  19.4121 -2.69784 -0.0607665
LeftHand  -0.25398 0.0180481 5.50724
RightShoulder  0.195096 -1.97056 4.83858
RightArm  -22.2116 -8.97721 5.10267
RightForeArm  5.50011 3.05047 1.69105
RightHand  -0.640006 0.881658 -11.9525
LeftUpLeg  -1.13107 5.45295 3.73087
LeftLeg  2.04329 15.2869 -3.64487
LeftFoot  -1.4462 0.183411 -2.1014
LeftToes  1.06246e-005 4.65855e-005 -8.18502e-006
22
root  2.1686 40.9258 -3.96763 -80.9709 -88.7558 83.0799
RightUpLeg  -2.13355 -9.74773 -9.06144
RightLeg  4.17686 -5.33285 2.87997
RightFoot  -1.14807 -0.193287 2.10835
RightToes  0.000482159 0.542163 -0.142577
Spine  4.49008 -0.0187326 -4.4945
Spine1  -1.66737 -0.878246 4.7724
HEad  -8.59189 -7.1895 -0.905298
LeftShoulder1  0.667025 -0.756201 -8.0267
LeftArm  -19.5729 15.2906 -8.87298
LeftForeArm  19.3394 -2.91053 -0.135705
LeftHand  -0.25398 0.0180481 5.50724
RightShoulder  0.186981 -2.03315 4.81625
RightArm  -22.3434 -8.90041 5.24684
RightForeArm  5.78866 3.28656 1.69658
RightHand  -0.652559 1.08535 -11.8221
LeftUpLeg  -1.06817 5.4794 3.74975
LeftLeg  2.03576 15.3233 -3.67023
LeftFoot  -1.43799 0.182807 -2.09201
LeftToes  1.06246e-005 4.65855e-005 -8.18502e-006
23
root  2.17998 40.9261 -3.96666 -83.2418 -88.7783 85.2516
RightUpLeg  -2.04929 -9.75009 -9.06087
RightLeg  4.15891 -5.2706 2.88348
RightFoot  -1.11666 -0.19156 2.08339
RightToes  0.000482159 0.542163 -0.142577
Spine  4.46467 -0.0325762 -4.53852
Spine1  -1.62078 -0.910388 4.86763
HEad  -8.60221 -7.03682 -0.940623
LeftShoulder1  0.671894 -0.740004 -8.23206
LeftArm  -19.3575 15.4079 -8.73931
LeftForeArm  19.2209 -2.85291 -0.192433
LeftHand  -0.25398 0.0180481 5.50724
RightShoulder  0.185897 -2.04128 4.86934
RightArm  -22.6862 -8.85283 5.46789
RightForeArm  6.059 3.75025 1.66555
RightHand  -0.663796 1.09626 -12.0062
LeftUpLeg  -0.979339 5.51396 3.78305
LeftLeg  2.05502 15.323 -3.67926
LeftFoot  -1.44941 0.181395 -2.07006
LeftToes  1.06246e-005 4.65855e-005 -8.18502e-006
24
root  2.19377 40.9266 -3.95847 -86.7985 -88.7836 88.7372
RightUpLeg  -2.01169 -9.75035 -9.07166
RightLeg  4.14948 -5.18303 2.87141
RightFoot  -1.06529 -0.193458 2.11213
RightToes  0.000482159 0.542163 -0.142577
Spine  4.45361 -0.138515 -4.46276
Spine1  -1.6797 -0.977899 4.65203
HEad  -8.67978 -6.65409 -1.01994
LeftShoulder1  0.696729 -0.840663 -8.4628
LeftArm  -19.4877 15.9272 -8.40458
LeftForeArm  19.9283 -3.34608 -0.107253
LeftHand  -0.25398 0.0180481 5.50724
RightShoulder  0.1982 -1.99041 5.29207
RightArm  -23.6021 -8.77724 5.98382
RightForeArm  5.17818 4.55312 1.61763
RightHand  -0.734457 1.23686 -12.984
LeftUpLeg  -0.9207 5.49934 3.76291
LeftLeg  2.06481 15.4175 -3.65376
LeftFoot  -1.44837 0.179638 -2.04274
LeftToes  1.06246e-005 4.65855e-005 -8.18502e-006
25
root  2.20654 40.9282 -3.94178 -97.6784 -88.7156 99.6141
RightUpLeg  -2.11753 -9.74674 -9.11461
RightLeg  4.2002 -4.93528 2.83957
RightFoot  -0.983808 -0.190437 2.06173
RightToes  0.000482159 0.542163 -0.142577
Spine  4.39436 -0.268479 -4.14994
Spine1  -1.70274 -0.981463 3.94571
HEad  -8.99113 -6.33666 -1.0505
LeftShoulder1  0.744056 -0.956096 -9.1832
LeftArm  -20.5742 17.1944 -7.66141
LeftForeArm  22.4721 -6.2381 0.15073
LeftHand  -0.25398 0.0180481 5.50724
RightShoulder  0.212775 -1.96354 6.10767
RightArm  -25.5139 -9.09145 7.22345
RightForeArm  2.67415 6.47357 1.65553
RightHand  -0.903535 1.94967 -14.447
LeftUpLeg  -0.872022 5.44167 3.6708
LeftLeg  1.99109 15.7262 -3.64772
LeftFoot  -1.4134 0.179076 -2.03399
LeftToes  1.06246e-005 4.65855e-005 -8.18502e-006
26
root  2.21561 40.9314 -3.92195 -115.224 -88.5064 117.182
RightUpLeg  -2.33105 -9.74008 -9.15715
RightLeg  4.30694 -4.48507 2.8012
RightFoot  -0.858167 -0.180349 1.89861
RightToes  0.000482159 0.542163 -0.142577
Spine  4.26838 -0.306542 -3.70589
Spine1  -1.53888 -0.858448 3.03824
HEad  -9.74934 -6.18062 -0.926155
LeftShoulder1  0.826927 -1.01107 -10.9902
LeftArm  -23.9393 19.2326 -6.53054
LeftForeArm  27.6078 -12.6091 -0.0495479
LeftHand  -0.25398 0.0180481 5.50724
RightShoulder  0.24167 -1.87777 7.27922
RightArm  -28.1586 -10.3448 9.09198
RightForeArm  -1.1563 10.4506 2.15703
RightHand  -1.14073 2.94309 -16.0816
LeftUpLeg  -0.781503 5.42594 3.58698
LeftLeg  1.85776 16.1826 -3.71519
LeftFoot  -1.3792 0.17907 -2.03389
LeftToes  1.06246e-005 4.65855e-005 -8.18502e-006
